<svg width="77" height="17" viewBox="0 0 77 17" fill="none" xmlns="http://www.w3.org/2000/svg">
<path d="M4.84009 12.6364H0.715088V1.00001H4.87418C6.04463 1.00001 7.05221 1.23297 7.89691 1.69888C8.7416 2.161 9.39122 2.82577 9.84577 3.6932C10.3041 4.56062 10.5333 5.5985 10.5333 6.80683C10.5333 8.01895 10.3041 9.06062 9.84577 9.93183C9.39122 10.803 8.73782 11.4716 7.88554 11.9375C7.03706 12.4034 6.02191 12.6364 4.84009 12.6364ZM3.17532 10.5284H4.73782C5.46509 10.5284 6.07683 10.3996 6.57304 10.1421C7.07304 9.8807 7.44804 9.47729 7.69804 8.93183C7.95183 8.38259 8.07872 7.67426 8.07872 6.80683C8.07872 5.94698 7.95183 5.24433 7.69804 4.69888C7.44804 4.15342 7.07494 3.75191 6.57872 3.49433C6.08251 3.23676 5.47077 3.10797 4.7435 3.10797H3.17532V10.5284Z" fill="#383838"/>
<path d="M13.7051 12.6364H11.0688L15.0858 1.00001H18.2563L22.2676 12.6364H19.6313L16.7165 3.65911H16.6256L13.7051 12.6364ZM13.5404 8.06251H19.7676V9.98297H13.5404V8.06251Z" fill="#383838"/>
<path d="M23.6682 12.6364V1.00001H28.2591C29.1417 1.00001 29.8936 1.16857 30.5148 1.5057C31.136 1.83903 31.6095 2.30304 31.9353 2.89774C32.2648 3.48865 32.4296 4.17047 32.4296 4.9432C32.4296 5.71592 32.2629 6.39774 31.9296 6.98865C31.5962 7.57956 31.1133 8.03979 30.4807 8.36933C29.8519 8.69888 29.0906 8.86365 28.1966 8.86365H25.2705V6.89206H27.7989C28.2724 6.89206 28.6625 6.81062 28.9693 6.64774C29.28 6.48107 29.511 6.25191 29.6625 5.96024C29.8178 5.66479 29.8955 5.32577 29.8955 4.9432C29.8955 4.55683 29.8178 4.21971 29.6625 3.93183C29.511 3.64017 29.28 3.41479 28.9693 3.2557C28.6587 3.09282 28.2648 3.01138 27.7875 3.01138H26.1284V12.6364H23.6682Z" fill="#383838"/>
<path d="M36.5767 4.00001H35.3995V0.36365H36.614C36.9703 0.36365 37.2763 0.436449 37.532 0.582045C37.7876 0.726458 37.9835 0.934199 38.1197 1.20527C38.257 1.47516 38.3256 1.7989 38.3256 2.17651C38.3256 2.55529 38.2564 2.88081 38.1179 3.15307C37.9806 3.42532 37.7817 3.63484 37.5213 3.78162C37.2609 3.92722 36.946 4.00001 36.5767 4.00001ZM35.9482 3.52061H36.5465C36.8235 3.52061 37.0537 3.46853 37.2372 3.36436C37.4207 3.25901 37.558 3.1069 37.6491 2.90804C37.7403 2.70799 37.7859 2.46415 37.7859 2.17651C37.7859 1.89123 37.7403 1.64916 37.6491 1.4503C37.5592 1.25143 37.4248 1.10051 37.2461 0.997528C37.0674 0.894545 36.8454 0.843054 36.5803 0.843054H35.9482V3.52061Z" fill="#383838"/>
<path d="M39.5566 0.36365V4.00001H39.0079V0.36365H39.5566Z" fill="#383838"/>
<path d="M40.3556 4.00001V0.36365H41.6517C41.9334 0.36365 42.1672 0.412182 42.3531 0.509247C42.5401 0.606311 42.6798 0.740663 42.7721 0.912301C42.8644 1.08276 42.9106 1.27984 42.9106 1.50357C42.9106 1.7261 42.8638 1.92201 42.7703 2.09128C42.678 2.25937 42.5383 2.39017 42.3513 2.48368C42.1655 2.57719 41.9317 2.62395 41.6499 2.62395H40.6681V2.15165H41.6002C41.7778 2.15165 41.9222 2.1262 42.0335 2.0753C42.1459 2.0244 42.2282 1.95042 42.2803 1.85335C42.3324 1.75629 42.3584 1.63969 42.3584 1.50357C42.3584 1.36625 42.3318 1.24729 42.2785 1.14668C42.2264 1.04606 42.1441 0.969119 42.0317 0.915852C41.9204 0.861401 41.7742 0.834176 41.5931 0.834176H40.9042V4.00001H40.3556ZM42.1507 2.35939L43.0491 4.00001H42.4241L41.5434 2.35939H42.1507Z" fill="#383838"/>
<path d="M43.5782 4.00001V0.36365H45.858V0.835952H44.1269V1.94391H45.7391V2.41443H44.1269V3.52771H45.8793V4.00001H43.5782Z" fill="#383838"/>
<path d="M46.4116 0.835952V0.36365H49.2259V0.835952H48.0913V4.00001H47.5444V0.835952H46.4116Z" fill="#383838"/>
<path d="M52.8502 2.18183C52.8502 2.57009 52.7792 2.9039 52.6372 3.18325C52.4951 3.46142 52.3004 3.67568 52.053 3.82601C51.8068 3.97516 51.5268 4.04973 51.2132 4.04973C50.8983 4.04973 50.6172 3.97516 50.3698 3.82601C50.1236 3.67568 49.9294 3.46083 49.7874 3.18148C49.6453 2.90212 49.5743 2.56891 49.5743 2.18183C49.5743 1.79357 49.6453 1.46036 49.7874 1.18219C49.9294 0.902831 50.1236 0.688579 50.3698 0.539432C50.6172 0.3891 50.8983 0.313934 51.2132 0.313934C51.5268 0.313934 51.8068 0.3891 52.053 0.539432C52.3004 0.688579 52.4951 0.902831 52.6372 1.18219C52.7792 1.46036 52.8502 1.79357 52.8502 2.18183ZM52.3069 2.18183C52.3069 1.8859 52.259 1.63673 52.1631 1.43432C52.0684 1.23072 51.9382 1.07684 51.7725 0.97267C51.6079 0.86732 51.4215 0.814645 51.2132 0.814645C51.0036 0.814645 50.8166 0.86732 50.6521 0.97267C50.4875 1.07684 50.3573 1.23072 50.2615 1.43432C50.1668 1.63673 50.1194 1.8859 50.1194 2.18183C50.1194 2.47776 50.1668 2.72752 50.2615 2.93112C50.3573 3.13354 50.4875 3.28742 50.6521 3.39277C50.8166 3.49694 51.0036 3.54902 51.2132 3.54902C51.4215 3.54902 51.6079 3.49694 51.7725 3.39277C51.9382 3.28742 52.0684 3.13354 52.1631 2.93112C52.259 2.72752 52.3069 2.47776 52.3069 2.18183Z" fill="#383838"/>
<path d="M53.5343 4.00001V0.36365H54.8304C55.1122 0.36365 55.3459 0.412182 55.5318 0.509247C55.7188 0.606311 55.8585 0.740663 55.9508 0.912301C56.0431 1.08276 56.0893 1.27984 56.0893 1.50357C56.0893 1.7261 56.0426 1.92201 55.949 2.09128C55.8567 2.25937 55.717 2.39017 55.53 2.48368C55.3442 2.57719 55.1104 2.62395 54.8287 2.62395H53.8468V2.15165H54.7789C54.9565 2.15165 55.1009 2.1262 55.2122 2.0753C55.3246 2.0244 55.4069 1.95042 55.459 1.85335C55.5111 1.75629 55.5371 1.63969 55.5371 1.50357C55.5371 1.36625 55.5105 1.24729 55.4572 1.14668C55.4051 1.04606 55.3229 0.969119 55.2104 0.915852C55.0991 0.861401 54.9529 0.834176 54.7718 0.834176H54.0829V4.00001H53.5343ZM55.3294 2.35939L56.2278 4.00001H55.6028L54.7221 2.35939H55.3294Z" fill="#383838"/>
<path d="M57.3056 0.36365V4.00001H56.7569V0.36365H57.3056Z" fill="#383838"/>
<path d="M58.4118 4.00001H57.8294L59.138 0.36365H59.7718L61.0804 4.00001H60.498L59.47 1.02416H59.4416L58.4118 4.00001ZM58.5094 2.57601H60.3986V3.03766H58.5094V2.57601Z" fill="#383838"/>
<path d="M64.106 4.00001H62.9288V0.36365H64.1433C64.4996 0.36365 64.8056 0.436449 65.0613 0.582045C65.3169 0.726458 65.5128 0.934199 65.649 1.20527C65.7863 1.47516 65.8549 1.7989 65.8549 2.17651C65.8549 2.55529 65.7857 2.88081 65.6472 3.15307C65.5099 3.42532 65.311 3.63484 65.0506 3.78162C64.7902 3.92722 64.4753 4.00001 64.106 4.00001ZM63.4775 3.52061H64.0758C64.3528 3.52061 64.583 3.46853 64.7665 3.36436C64.95 3.25901 65.0873 3.1069 65.1784 2.90804C65.2696 2.70799 65.3152 2.46415 65.3152 2.17651C65.3152 1.89123 65.2696 1.64916 65.1784 1.4503C65.0885 1.25143 64.9541 1.10051 64.7754 0.997528C64.5967 0.894545 64.3747 0.843054 64.1096 0.843054H63.4775V3.52061Z" fill="#383838"/>
<path d="M66.5372 4.00001V0.36365H68.817V0.835952H67.0858V1.94391H68.6981V2.41443H67.0858V3.52771H68.8383V4.00001H66.5372Z" fill="#383838"/>
<path d="M35.7067 10H35.1243L36.4329 6.36365H37.0668L38.3754 10H37.793L36.7649 7.02416H36.7365L35.7067 10ZM35.8043 8.57601H37.6935V9.03766H35.8043V8.57601Z" fill="#383838"/>
<path d="M40.0777 10H38.9005V6.36365H40.115C40.4713 6.36365 40.7773 6.43645 41.0329 6.58205C41.2886 6.72646 41.4845 6.9342 41.6207 7.20527C41.758 7.47516 41.8266 7.7989 41.8266 8.17651C41.8266 8.55529 41.7574 8.88081 41.6189 9.15307C41.4816 9.42532 41.2827 9.63484 41.0223 9.78162C40.7619 9.92722 40.447 10 40.0777 10ZM39.4491 9.52061H40.0475C40.3245 9.52061 40.5547 9.46853 40.7382 9.36436C40.9217 9.25901 41.059 9.1069 41.1501 8.90804C41.2413 8.70799 41.2868 8.46415 41.2868 8.17651C41.2868 7.89123 41.2413 7.64916 41.1501 7.4503C41.0602 7.25143 40.9258 7.10051 40.7471 6.99753C40.5683 6.89455 40.3464 6.84305 40.0812 6.84305H39.4491V9.52061Z" fill="#383838"/>
<path d="M42.5089 6.36365H43.1747L44.3324 9.19036H44.375L45.5327 6.36365H46.1985V10H45.6765V7.36862H45.6428L44.5703 9.99469H44.1371L43.0646 7.36685H43.0309V10H42.5089V6.36365Z" fill="#383838"/>
<path d="M47.5448 6.36365V10H46.9962V6.36365H47.5448Z" fill="#383838"/>
<path d="M51.2789 6.36365V10H50.7746L48.9262 7.33311H48.8925V10H48.3438V6.36365H48.8517L50.7018 9.03411H50.7355V6.36365H51.2789Z" fill="#383838"/>
<path d="M52.6278 6.36365V10H52.0792V6.36365H52.6278Z" fill="#383838"/>
<path d="M55.4102 7.31891C55.3912 7.15082 55.3131 7.02061 55.1758 6.92828C55.0385 6.83477 54.8656 6.78801 54.6573 6.78801C54.5082 6.78801 54.3791 6.81169 54.2702 6.85903C54.1613 6.9052 54.0767 6.96912 54.0163 7.0508C53.9571 7.13129 53.9276 7.22303 53.9276 7.32601C53.9276 7.41242 53.9477 7.48699 53.9879 7.54973C54.0294 7.61247 54.0832 7.66514 54.1495 7.70776C54.217 7.74919 54.2892 7.7841 54.3661 7.81251C54.4431 7.83974 54.517 7.86223 54.5881 7.87999L54.9432 7.97232C55.0592 8.00072 55.1781 8.03919 55.3001 8.08773C55.422 8.13626 55.535 8.20018 55.6392 8.27949C55.7434 8.3588 55.8274 8.45705 55.8913 8.57423C55.9564 8.69142 55.989 8.83169 55.989 8.99504C55.989 9.20101 55.9357 9.38389 55.8292 9.54369C55.7238 9.70349 55.5706 9.82956 55.3693 9.92189C55.1693 10.0142 54.9272 10.0604 54.6431 10.0604C54.3709 10.0604 54.1353 10.0172 53.9364 9.93077C53.7376 9.84436 53.5819 9.72184 53.4695 9.56322C53.357 9.40342 53.2949 9.21403 53.283 8.99504H53.8335C53.8441 9.12643 53.8867 9.23593 53.9613 9.32352C54.037 9.40993 54.1335 9.47445 54.2507 9.51706C54.3691 9.55849 54.4987 9.5792 54.6396 9.5792C54.7946 9.5792 54.9325 9.55494 55.0533 9.50641C55.1752 9.45669 55.2711 9.38803 55.3409 9.30044C55.4107 9.21166 55.4457 9.10809 55.4457 8.98972C55.4457 8.882 55.4149 8.79381 55.3533 8.72516C55.293 8.6565 55.2107 8.59968 55.1065 8.5547C55.0036 8.50972 54.887 8.47007 54.7567 8.43574L54.3271 8.31855C54.0359 8.23924 53.805 8.12265 53.6346 7.96876C53.4653 7.81488 53.3807 7.61128 53.3807 7.35797C53.3807 7.14845 53.4375 6.96557 53.5511 6.80932C53.6648 6.65307 53.8187 6.53174 54.0128 6.44533C54.2069 6.35773 54.4259 6.31393 54.6697 6.31393C54.916 6.31393 55.1332 6.35714 55.3214 6.44355C55.5108 6.52996 55.6599 6.64892 55.7688 6.80044C55.8777 6.95077 55.9345 7.12359 55.9393 7.31891H55.4102Z" fill="#383838"/>
<path d="M56.4653 6.83595V6.36365H59.2796V6.83595H58.145V10H57.5981V6.83595H56.4653Z" fill="#383838"/>
<path d="M59.9015 10V6.36365H61.1976C61.4793 6.36365 61.7131 6.41218 61.899 6.50925C62.086 6.60631 62.2257 6.74066 62.318 6.9123C62.4103 7.08276 62.4565 7.27984 62.4565 7.50357C62.4565 7.7261 62.4097 7.92201 62.3162 8.09128C62.2239 8.25937 62.0842 8.39017 61.8972 8.48368C61.7114 8.57719 61.4776 8.62395 61.1958 8.62395H60.214V8.15165H61.1461C61.3237 8.15165 61.4681 8.1262 61.5794 8.0753C61.6918 8.0244 61.7741 7.95042 61.8262 7.85335C61.8783 7.75629 61.9043 7.63969 61.9043 7.50357C61.9043 7.36625 61.8777 7.24729 61.8244 7.14668C61.7723 7.04606 61.69 6.96912 61.5776 6.91585C61.4663 6.8614 61.3201 6.83418 61.139 6.83418H60.4501V10H59.9015ZM61.6966 8.35939L62.595 10H61.97L61.0893 8.35939H61.6966Z" fill="#383838"/>
<path d="M63.4313 10H62.8489L64.1575 6.36365H64.7914L66.1 10H65.5176L64.4895 7.02416H64.4611L63.4313 10ZM63.5289 8.57601H65.4181V9.03766H63.5289V8.57601Z" fill="#383838"/>
<path d="M69.4744 7.54618H68.9205C68.8991 7.42781 68.8595 7.32364 68.8015 7.23368C68.7435 7.14372 68.6725 7.06737 68.5884 7.00463C68.5044 6.94189 68.4103 6.89455 68.3061 6.86259C68.2031 6.83062 68.0936 6.81464 67.9776 6.81464C67.7681 6.81464 67.5805 6.86732 67.4148 6.97267C67.2502 7.07802 67.12 7.23249 67.0241 7.43609C66.9295 7.63969 66.8821 7.88827 66.8821 8.18183C66.8821 8.47776 66.9295 8.72752 67.0241 8.93112C67.12 9.13472 67.2508 9.2886 67.4165 9.39277C67.5823 9.49694 67.7687 9.54902 67.9759 9.54902C68.0907 9.54902 68.1996 9.53363 68.3026 9.50286C68.4067 9.4709 68.5008 9.42414 68.5849 9.36259C68.6689 9.30103 68.7399 9.22587 68.7979 9.13709C68.8571 9.04713 68.898 8.94414 68.9205 8.82814L69.4744 8.82991C69.4448 9.00865 69.3874 9.17319 69.3022 9.32352C69.2182 9.47267 69.1098 9.60169 68.9773 9.7106C68.8459 9.81831 68.6955 9.90177 68.5263 9.96095C68.357 10.0201 68.1723 10.0497 67.9723 10.0497C67.6574 10.0497 67.3769 9.97516 67.1307 9.82601C66.8845 9.67568 66.6903 9.46083 66.5483 9.18148C66.4074 8.90212 66.337 8.56891 66.337 8.18183C66.337 7.79357 66.408 7.46036 66.5501 7.18219C66.6921 6.90283 66.8862 6.68858 67.1325 6.53943C67.3787 6.3891 67.6586 6.31393 67.9723 6.31393C68.1652 6.31393 68.3452 6.34175 68.5121 6.39739C68.6802 6.45184 68.8311 6.53233 68.9648 6.63886C69.0986 6.74421 69.2093 6.87324 69.2969 7.02594C69.3845 7.17745 69.4437 7.35087 69.4744 7.54618ZM67.7859 10.0053H68.1339L68.1055 10.1509C68.2085 10.1675 68.2984 10.2089 68.3754 10.2752C68.4523 10.3415 68.4908 10.4415 68.4908 10.5753C68.492 10.7351 68.4227 10.8647 68.283 10.9641C68.1445 11.0636 67.9439 11.1133 67.6811 11.1133L67.6705 10.8168C67.7936 10.8168 67.893 10.799 67.9688 10.7635C68.0457 10.728 68.0848 10.6706 68.0859 10.5913C68.0871 10.512 68.0575 10.4563 67.9972 10.4244C67.938 10.3924 67.8433 10.3699 67.7131 10.3569L67.7859 10.0053Z" fill="#383838"/>
<path d="M70.4137 10H69.8313L71.1399 6.36365H71.7738L73.0824 10H72.5L71.4719 7.02416H71.4435L70.4137 10ZM70.5114 8.57601H72.4006V9.03766H70.5114V8.57601ZM70.9233 6.00321L70.5646 5.99078C70.5646 5.79547 70.6179 5.63922 70.7244 5.52203C70.831 5.40484 70.9618 5.34566 71.1168 5.34447C71.1902 5.34447 71.2541 5.3569 71.3086 5.38176C71.363 5.40544 71.4139 5.43325 71.4613 5.46521C71.5086 5.49717 71.5566 5.52558 71.6051 5.55044C71.6536 5.57411 71.7075 5.58595 71.7667 5.58595C71.8342 5.58477 71.8892 5.55873 71.9318 5.50783C71.9756 5.45574 71.9975 5.39123 71.9975 5.31429L72.3491 5.33737C72.3479 5.53505 72.294 5.69071 72.1875 5.80435C72.0821 5.9168 71.9519 5.97303 71.7969 5.97303C71.7128 5.97303 71.643 5.96119 71.5874 5.93751C71.5317 5.91266 71.4826 5.88484 71.44 5.85406C71.3974 5.8221 71.3536 5.79428 71.3086 5.77061C71.2636 5.74575 71.2098 5.73332 71.147 5.73332C71.0819 5.73332 71.0281 5.75877 70.9854 5.80967C70.944 5.86057 70.9233 5.92509 70.9233 6.00321Z" fill="#383838"/>
<path d="M76.5953 8.18183C76.5953 8.57009 76.5243 8.9039 76.3823 9.18325C76.2402 9.46142 76.0455 9.67568 75.7981 9.82601C75.5519 9.97516 75.272 10.0497 74.9583 10.0497C74.6434 10.0497 74.3623 9.97516 74.1149 9.82601C73.8687 9.67568 73.6745 9.46083 73.5325 9.18148C73.3904 8.90212 73.3194 8.56891 73.3194 8.18183C73.3194 7.79357 73.3904 7.46036 73.5325 7.18219C73.6745 6.90283 73.8687 6.68858 74.1149 6.53943C74.3623 6.3891 74.6434 6.31393 74.9583 6.31393C75.272 6.31393 75.5519 6.3891 75.7981 6.53943C76.0455 6.68858 76.2402 6.90283 76.3823 7.18219C76.5243 7.46036 76.5953 7.79357 76.5953 8.18183ZM76.052 8.18183C76.052 7.8859 76.0041 7.63673 75.9082 7.43432C75.8135 7.23072 75.6833 7.07684 75.5176 6.97267C75.353 6.86732 75.1666 6.81464 74.9583 6.81464C74.7488 6.81464 74.5617 6.86732 74.3972 6.97267C74.2327 7.07684 74.1024 7.23072 74.0066 7.43432C73.9119 7.63673 73.8645 7.8859 73.8645 8.18183C73.8645 8.47776 73.9119 8.72752 74.0066 8.93112C74.1024 9.13354 74.2327 9.28742 74.3972 9.39277C74.5617 9.49694 74.7488 9.54902 74.9583 9.54902C75.1666 9.54902 75.353 9.49694 75.5176 9.39277C75.6833 9.28742 75.8135 9.13354 75.9082 8.93112C76.0041 8.72752 76.052 8.47776 76.052 8.18183Z" fill="#383838"/>
<path d="M36.5767 16H35.3995V12.3637H36.614C36.9703 12.3637 37.2763 12.4364 37.532 12.582C37.7876 12.7265 37.9835 12.9342 38.1197 13.2053C38.257 13.4752 38.3256 13.7989 38.3256 14.1765C38.3256 14.5553 38.2564 14.8808 38.1179 15.1531C37.9806 15.4253 37.7817 15.6348 37.5213 15.7816C37.2609 15.9272 36.946 16 36.5767 16ZM35.9482 15.5206H36.5465C36.8235 15.5206 37.0537 15.4685 37.2372 15.3644C37.4207 15.259 37.558 15.1069 37.6491 14.908C37.7403 14.708 37.7859 14.4641 37.7859 14.1765C37.7859 13.8912 37.7403 13.6492 37.6491 13.4503C37.5592 13.2514 37.4248 13.1005 37.2461 12.9975C37.0674 12.8945 36.8454 12.8431 36.5803 12.8431H35.9482V15.5206Z" fill="#383838"/>
<path d="M39.0079 16V12.3637H41.2877V12.836H39.5566V13.9439H41.1688V14.4144H39.5566V15.5277H41.309V16H39.0079Z" fill="#383838"/>
<path d="M43.3438 16V12.3637H44.64C44.9229 12.3637 45.1573 12.4151 45.3431 12.5181C45.529 12.6211 45.6681 12.762 45.7604 12.9407C45.8527 13.1183 45.8989 13.3183 45.8989 13.5409C45.8989 13.7646 45.8521 13.9658 45.7586 14.1445C45.6663 14.3221 45.5266 14.463 45.3396 14.5671C45.1537 14.6701 44.92 14.7216 44.6382 14.7216H43.7469V14.2564H44.5885C44.7673 14.2564 44.9123 14.2256 45.0235 14.1641C45.1348 14.1013 45.2165 14.0161 45.2686 13.9084C45.3206 13.8007 45.3467 13.6782 45.3467 13.5409C45.3467 13.4035 45.3206 13.2816 45.2686 13.1751C45.2165 13.0686 45.1342 12.9851 45.0218 12.9247C44.9105 12.8644 44.7637 12.8342 44.5814 12.8342H43.8925V16H43.3438Z" fill="#383838"/>
<path d="M46.5421 16V12.3637H48.8219V12.836H47.0907V13.9439H48.7029V14.4144H47.0907V15.5277H48.8432V16H46.5421Z" fill="#383838"/>
<path d="M51.5381 13.3189C51.5191 13.1508 51.441 13.0206 51.3037 12.9283C51.1664 12.8348 50.9936 12.788 50.7852 12.788C50.6361 12.788 50.5071 12.8117 50.3982 12.859C50.2893 12.9052 50.2046 12.9691 50.1443 13.0508C50.0851 13.1313 50.0555 13.223 50.0555 13.326C50.0555 13.4124 50.0756 13.487 50.1159 13.5497C50.1573 13.6125 50.2111 13.6651 50.2774 13.7078C50.3449 13.7492 50.4171 13.7841 50.4941 13.8125C50.571 13.8397 50.645 13.8622 50.716 13.88L51.0711 13.9723C51.1871 14.0007 51.3061 14.0392 51.428 14.0877C51.5499 14.1363 51.663 14.2002 51.7671 14.2795C51.8713 14.3588 51.9553 14.457 52.0193 14.5742C52.0844 14.6914 52.1169 14.8317 52.1169 14.995C52.1169 15.201 52.0637 15.3839 51.9571 15.5437C51.8518 15.7035 51.6985 15.8296 51.4972 15.9219C51.2972 16.0142 51.0551 16.0604 50.771 16.0604C50.4988 16.0604 50.2632 16.0172 50.0644 15.9308C49.8655 15.8444 49.7098 15.7218 49.5974 15.5632C49.4849 15.4034 49.4228 15.214 49.411 14.995H49.9614C49.972 15.1264 50.0146 15.2359 50.0892 15.3235C50.165 15.4099 50.2615 15.4744 50.3786 15.5171C50.497 15.5585 50.6266 15.5792 50.7675 15.5792C50.9226 15.5792 51.0605 15.5549 51.1812 15.5064C51.3031 15.4567 51.399 15.388 51.4688 15.3004C51.5387 15.2117 51.5736 15.1081 51.5736 14.9897C51.5736 14.882 51.5428 14.7938 51.4813 14.7252C51.4209 14.6565 51.3386 14.5997 51.2345 14.5547C51.1315 14.5097 51.0149 14.4701 50.8847 14.4357L50.455 14.3186C50.1638 14.2392 49.933 14.1226 49.7625 13.9688C49.5932 13.8149 49.5086 13.6113 49.5086 13.358C49.5086 13.1485 49.5654 12.9656 49.6791 12.8093C49.7927 12.6531 49.9466 12.5317 50.1407 12.4453C50.3348 12.3577 50.5538 12.3139 50.7977 12.3139C51.0439 12.3139 51.2611 12.3571 51.4493 12.4436C51.6387 12.53 51.7878 12.6489 51.8968 12.8004C52.0057 12.9508 52.0625 13.1236 52.0672 13.3189H51.5381Z" fill="#383838"/>
<path d="M54.7559 13.3189C54.7369 13.1508 54.6588 13.0206 54.5215 12.9283C54.3842 12.8348 54.2114 12.788 54.003 12.788C53.8539 12.788 53.7248 12.8117 53.6159 12.859C53.507 12.9052 53.4224 12.9691 53.362 13.0508C53.3029 13.1313 53.2733 13.223 53.2733 13.326C53.2733 13.4124 53.2934 13.487 53.3336 13.5497C53.3751 13.6125 53.4289 13.6651 53.4952 13.7078C53.5627 13.7492 53.6349 13.7841 53.7118 13.8125C53.7888 13.8397 53.8628 13.8622 53.9338 13.88L54.2889 13.9723C54.4049 14.0007 54.5239 14.0392 54.6458 14.0877C54.7677 14.1363 54.8807 14.2002 54.9849 14.2795C55.0891 14.3588 55.1731 14.457 55.237 14.5742C55.3021 14.6914 55.3347 14.8317 55.3347 14.995C55.3347 15.201 55.2814 15.3839 55.1749 15.5437C55.0695 15.7035 54.9163 15.8296 54.715 15.9219C54.515 16.0142 54.2729 16.0604 53.9888 16.0604C53.7166 16.0604 53.481 16.0172 53.2821 15.9308C53.0833 15.8444 52.9276 15.7218 52.8152 15.5632C52.7027 15.4034 52.6406 15.214 52.6287 14.995H53.1792C53.1898 15.1264 53.2324 15.2359 53.307 15.3235C53.3828 15.4099 53.4792 15.4744 53.5964 15.5171C53.7148 15.5585 53.8444 15.5792 53.9853 15.5792C54.1403 15.5792 54.2782 15.5549 54.399 15.5064C54.5209 15.4567 54.6168 15.388 54.6866 15.3004C54.7565 15.2117 54.7914 15.1081 54.7914 14.9897C54.7914 14.882 54.7606 14.7938 54.699 14.7252C54.6387 14.6565 54.5564 14.5997 54.4522 14.5547C54.3493 14.5097 54.2327 14.4701 54.1025 14.4357L53.6728 14.3186C53.3816 14.2392 53.1507 14.1226 52.9803 13.9688C52.811 13.8149 52.7264 13.6113 52.7264 13.358C52.7264 13.1485 52.7832 12.9656 52.8968 12.8093C53.0105 12.6531 53.1644 12.5317 53.3585 12.4453C53.5526 12.3577 53.7716 12.3139 54.0154 12.3139C54.2617 12.3139 54.4789 12.3571 54.6671 12.4436C54.8565 12.53 55.0056 12.6489 55.1145 12.8004C55.2234 12.9508 55.2802 13.1236 55.285 13.3189H54.7559Z" fill="#383838"/>
<path d="M59.1491 14.1818C59.1491 14.5701 59.078 14.9039 58.936 15.1833C58.7939 15.4614 58.5992 15.6757 58.3518 15.826C58.1056 15.9752 57.8257 16.0497 57.512 16.0497C57.1971 16.0497 56.916 15.9752 56.6686 15.826C56.4224 15.6757 56.2282 15.4608 56.0862 15.1815C55.9442 14.9021 55.8731 14.5689 55.8731 14.1818C55.8731 13.7936 55.9442 13.4604 56.0862 13.1822C56.2282 12.9028 56.4224 12.6886 56.6686 12.5394C56.916 12.3891 57.1971 12.3139 57.512 12.3139C57.8257 12.3139 58.1056 12.3891 58.3518 12.5394C58.5992 12.6886 58.7939 12.9028 58.936 13.1822C59.078 13.4604 59.1491 13.7936 59.1491 14.1818ZM58.6057 14.1818C58.6057 13.8859 58.5578 13.6367 58.4619 13.4343C58.3672 13.2307 58.237 13.0768 58.0713 12.9727C57.9068 12.8673 57.7203 12.8146 57.512 12.8146C57.3025 12.8146 57.1154 12.8673 56.9509 12.9727C56.7864 13.0768 56.6562 13.2307 56.5603 13.4343C56.4656 13.6367 56.4182 13.8859 56.4182 14.1818C56.4182 14.4778 56.4656 14.7275 56.5603 14.9311C56.6562 15.1335 56.7864 15.2874 56.9509 15.3928C57.1154 15.4969 57.3025 15.549 57.512 15.549C57.7203 15.549 57.9068 15.4969 58.0713 15.3928C58.237 15.2874 58.3672 15.1335 58.4619 14.9311C58.5578 14.7275 58.6057 14.4778 58.6057 14.1818Z" fill="#383838"/>
<path d="M59.9596 16H59.3772L60.6858 12.3637H61.3197L62.6283 16H62.0459L61.0178 13.0242H60.9894L59.9596 16ZM60.0573 14.576H61.9465V15.0377H60.0573V14.576Z" fill="#383838"/>
<path d="M65.1074 13.3189C65.0885 13.1508 65.0104 13.0206 64.873 12.9283C64.7357 12.8348 64.5629 12.788 64.3546 12.788C64.2054 12.788 64.0764 12.8117 63.9675 12.859C63.8586 12.9052 63.774 12.9691 63.7136 13.0508C63.6544 13.1313 63.6248 13.223 63.6248 13.326C63.6248 13.4124 63.6449 13.487 63.6852 13.5497C63.7266 13.6125 63.7805 13.6651 63.8468 13.7078C63.9142 13.7492 63.9864 13.7841 64.0634 13.8125C64.1403 13.8397 64.2143 13.8622 64.2853 13.88L64.6404 13.9723C64.7564 14.0007 64.8754 14.0392 64.9973 14.0877C65.1193 14.1363 65.2323 14.2002 65.3365 14.2795C65.4406 14.3588 65.5247 14.457 65.5886 14.5742C65.6537 14.6914 65.6863 14.8317 65.6863 14.995C65.6863 15.201 65.633 15.3839 65.5265 15.5437C65.4211 15.7035 65.2678 15.8296 65.0666 15.9219C64.8665 16.0142 64.6245 16.0604 64.3404 16.0604C64.0681 16.0604 63.8326 16.0172 63.6337 15.9308C63.4348 15.8444 63.2792 15.7218 63.1667 15.5632C63.0543 15.4034 62.9921 15.214 62.9803 14.995H63.5307C63.5414 15.1264 63.584 15.2359 63.6586 15.3235C63.7343 15.4099 63.8308 15.4744 63.948 15.5171C64.0663 15.5585 64.196 15.5792 64.3368 15.5792C64.4919 15.5792 64.6298 15.5549 64.7505 15.5064C64.8725 15.4567 64.9683 15.388 65.0382 15.3004C65.108 15.2117 65.1429 15.1081 65.1429 14.9897C65.1429 14.882 65.1122 14.7938 65.0506 14.7252C64.9902 14.6565 64.908 14.5997 64.8038 14.5547C64.7008 14.5097 64.5842 14.4701 64.454 14.4357L64.0243 14.3186C63.7331 14.2392 63.5023 14.1226 63.3319 13.9688C63.1626 13.8149 63.0779 13.6113 63.0779 13.358C63.0779 13.1485 63.1348 12.9656 63.2484 12.8093C63.362 12.6531 63.5159 12.5317 63.71 12.4453C63.9042 12.3577 64.1232 12.3139 64.367 12.3139C64.6132 12.3139 64.8304 12.3571 65.0186 12.4436C65.208 12.53 65.3572 12.6489 65.4661 12.8004C65.575 12.9508 65.6318 13.1236 65.6365 13.3189H65.1074Z" fill="#383838"/>
</svg>
