<svg width="146" height="18" viewBox="0 0 146 18" fill="none" xmlns="http://www.w3.org/2000/svg">
<path d="M0.0113525 14.7955V3.15911H4.60226C5.48484 3.15911 6.23673 3.32767 6.85794 3.66479C7.47916 3.99812 7.95264 4.46214 8.2784 5.05683C8.60794 5.64774 8.77272 6.32956 8.77272 7.10229C8.77272 7.87501 8.60605 8.55683 8.27272 9.14774C7.93938 9.73865 7.45643 10.1989 6.82385 10.5284C6.19507 10.858 5.4337 11.0227 4.53976 11.0227H1.61363V9.05115H4.14203C4.61552 9.05115 5.00567 8.96971 5.31249 8.80683C5.6231 8.64017 5.85416 8.411 6.00567 8.11933C6.16097 7.82388 6.23863 7.48486 6.23863 7.10229C6.23863 6.71592 6.16097 6.3788 6.00567 6.09092C5.85416 5.79926 5.6231 5.57388 5.31249 5.41479C5.00188 5.25191 4.60794 5.17047 4.13067 5.17047H2.47158V14.7955H0.0113525Z" fill="#383838"/>
<path d="M10.3707 14.7955V3.15911H14.9616C15.8404 3.15911 16.5904 3.3163 17.2116 3.6307C17.8366 3.9413 18.312 4.38259 18.6378 4.95456C18.9673 5.52274 19.1321 6.1913 19.1321 6.96024C19.1321 7.73297 18.9654 8.39774 18.6321 8.95456C18.2988 9.50759 17.8158 9.93183 17.1832 10.2273C16.5544 10.5227 15.7931 10.6705 14.8991 10.6705H11.8253V8.6932H14.5014C14.9711 8.6932 15.3613 8.6288 15.6719 8.50001C15.9825 8.37123 16.2135 8.17804 16.365 7.92047C16.5203 7.66289 16.598 7.34282 16.598 6.96024C16.598 6.57388 16.5203 6.24812 16.365 5.98297C16.2135 5.71782 15.9806 5.51706 15.6662 5.3807C15.3556 5.24054 14.9635 5.17047 14.49 5.17047H12.831V14.7955H10.3707ZM16.6548 9.50001L19.5469 14.7955H16.831L14.0014 9.50001H16.6548Z" fill="#383838"/>
<path d="M31.5639 8.97729C31.5639 10.2462 31.3234 11.3258 30.8423 12.2159C30.365 13.1061 29.7135 13.786 28.8878 14.2557C28.0658 14.7216 27.1416 14.9546 26.115 14.9546C25.081 14.9546 24.1529 14.7197 23.331 14.25C22.509 13.7803 21.8594 13.1004 21.3821 12.2102C20.9048 11.3201 20.6662 10.2424 20.6662 8.97729C20.6662 7.70835 20.9048 6.6288 21.3821 5.73865C21.8594 4.8485 22.509 4.17047 23.331 3.70456C24.1529 3.23486 25.081 3.00001 26.115 3.00001C27.1416 3.00001 28.0658 3.23486 28.8878 3.70456C29.7135 4.17047 30.365 4.8485 30.8423 5.73865C31.3234 6.6288 31.5639 7.70835 31.5639 8.97729ZM29.0696 8.97729C29.0696 8.15532 28.9465 7.46214 28.7003 6.89774C28.4578 6.33335 28.115 5.90532 27.6719 5.61365C27.2287 5.32198 26.7097 5.17615 26.115 5.17615C25.5203 5.17615 25.0014 5.32198 24.5582 5.61365C24.115 5.90532 23.7703 6.33335 23.5241 6.89774C23.2817 7.46214 23.1605 8.15532 23.1605 8.97729C23.1605 9.79926 23.2817 10.4924 23.5241 11.0568C23.7703 11.6212 24.115 12.0493 24.5582 12.3409C25.0014 12.6326 25.5203 12.7784 26.115 12.7784C26.7097 12.7784 27.2287 12.6326 27.6719 12.3409C28.115 12.0493 28.4578 11.6212 28.7003 11.0568C28.9465 10.4924 29.0696 9.79926 29.0696 8.97729Z" fill="#383838"/>
<path d="M33.3864 14.7955V3.15911H37.9773C38.8598 3.15911 39.6117 3.32767 40.2329 3.66479C40.8542 3.99812 41.3276 4.46214 41.6534 5.05683C41.9829 5.64774 42.1477 6.32956 42.1477 7.10229C42.1477 7.87501 41.981 8.55683 41.6477 9.14774C41.3144 9.73865 40.8314 10.1989 40.1989 10.5284C39.5701 10.858 38.8087 11.0227 37.9148 11.0227H34.9886V9.05115H37.517C37.9905 9.05115 38.3807 8.96971 38.6875 8.80683C38.9981 8.64017 39.2292 8.411 39.3807 8.11933C39.536 7.82388 39.6136 7.48486 39.6136 7.10229C39.6136 6.71592 39.536 6.3788 39.3807 6.09092C39.2292 5.79926 38.9981 5.57388 38.6875 5.41479C38.3769 5.25191 37.9829 5.17047 37.5057 5.17047H35.8466V14.7955H33.3864Z" fill="#383838"/>
<path d="M43.7457 14.7955V3.15911H51.5866V5.18751H46.206V7.96024H51.1832V9.98865H46.206V12.7671H51.6094V14.7955H43.7457Z" fill="#383838"/>
<path d="M59.8551 6.5057C59.8096 6.04736 59.6146 5.6913 59.2699 5.43751C58.9252 5.18373 58.4574 5.05683 57.8665 5.05683C57.465 5.05683 57.1259 5.11365 56.8494 5.22729C56.5729 5.33714 56.3608 5.49054 56.2131 5.68751C56.0691 5.88448 55.9971 6.10797 55.9971 6.35797C55.9896 6.5663 56.0331 6.74812 56.1278 6.90342C56.2263 7.05873 56.3608 7.1932 56.5312 7.30683C56.7017 7.41668 56.8987 7.51327 57.1221 7.5966C57.3456 7.67615 57.5843 7.74433 57.8381 7.80115L58.8835 8.05115C59.3911 8.16479 59.857 8.3163 60.2812 8.5057C60.7055 8.69509 61.0729 8.92804 61.3835 9.20456C61.6941 9.48107 61.9346 9.80683 62.1051 10.1818C62.2793 10.5568 62.3684 10.9868 62.3721 11.4716C62.3684 12.1837 62.1865 12.8012 61.8267 13.3239C61.4706 13.8428 60.9555 14.2462 60.2812 14.5341C59.6108 14.8182 58.8021 14.9602 57.8551 14.9602C56.9157 14.9602 56.0975 14.8163 55.4006 14.5284C54.7074 14.2405 54.1657 13.8144 53.7756 13.25C53.3892 12.6818 53.1865 11.9792 53.1676 11.1421H55.5483C55.5748 11.5322 55.6865 11.858 55.8835 12.1193C56.0843 12.3769 56.3513 12.572 56.6846 12.7046C57.0218 12.8333 57.4025 12.8977 57.8267 12.8977C58.2434 12.8977 58.6051 12.8371 58.9119 12.7159C59.2225 12.5947 59.4631 12.4262 59.6335 12.2102C59.804 11.9943 59.8892 11.7462 59.8892 11.4659C59.8892 11.2046 59.8115 10.9849 59.6562 10.8068C59.5047 10.6288 59.2812 10.4773 58.9858 10.3523C58.6941 10.2273 58.3362 10.1137 57.9119 10.0114L56.6449 9.6932C55.6638 9.45456 54.8892 9.08145 54.321 8.57388C53.7528 8.0663 53.4706 7.38259 53.4744 6.52274C53.4706 5.8182 53.6581 5.20267 54.0369 4.67615C54.4195 4.14964 54.9441 3.73865 55.6108 3.4432C56.2774 3.14774 57.035 3.00001 57.8835 3.00001C58.7471 3.00001 59.5009 3.14774 60.1449 3.4432C60.7926 3.73865 61.2964 4.14964 61.6562 4.67615C62.0161 5.20267 62.2017 5.81251 62.2131 6.5057H59.8551Z" fill="#383838"/>
<path d="M70.3395 6.5057C70.294 6.04736 70.0989 5.6913 69.7542 5.43751C69.4096 5.18373 68.9417 5.05683 68.3508 5.05683C67.9493 5.05683 67.6103 5.11365 67.3338 5.22729C67.0573 5.33714 66.8452 5.49054 66.6974 5.68751C66.5535 5.88448 66.4815 6.10797 66.4815 6.35797C66.4739 6.5663 66.5175 6.74812 66.6122 6.90342C66.7107 7.05873 66.8452 7.1932 67.0156 7.30683C67.1861 7.41668 67.383 7.51327 67.6065 7.5966C67.83 7.67615 68.0686 7.74433 68.3224 7.80115L69.3679 8.05115C69.8755 8.16479 70.3414 8.3163 70.7656 8.5057C71.1899 8.69509 71.5573 8.92804 71.8679 9.20456C72.1785 9.48107 72.419 9.80683 72.5895 10.1818C72.7637 10.5568 72.8527 10.9868 72.8565 11.4716C72.8527 12.1837 72.6709 12.8012 72.3111 13.3239C71.955 13.8428 71.4399 14.2462 70.7656 14.5341C70.0952 14.8182 69.2864 14.9602 68.3395 14.9602C67.4001 14.9602 66.5819 14.8163 65.8849 14.5284C65.1918 14.2405 64.6501 13.8144 64.2599 13.25C63.8736 12.6818 63.6709 11.9792 63.652 11.1421H66.0327C66.0592 11.5322 66.1709 11.858 66.3679 12.1193C66.5686 12.3769 66.8357 12.572 67.169 12.7046C67.5061 12.8333 67.8868 12.8977 68.3111 12.8977C68.7277 12.8977 69.0895 12.8371 69.3963 12.7159C69.7069 12.5947 69.9474 12.4262 70.1179 12.2102C70.2883 11.9943 70.3736 11.7462 70.3736 11.4659C70.3736 11.2046 70.2959 10.9849 70.1406 10.8068C69.9891 10.6288 69.7656 10.4773 69.4702 10.3523C69.1785 10.2273 68.8205 10.1137 68.3963 10.0114L67.1292 9.6932C66.1482 9.45456 65.3736 9.08145 64.8054 8.57388C64.2372 8.0663 63.955 7.38259 63.9588 6.52274C63.955 5.8182 64.1425 5.20267 64.5213 4.67615C64.9039 4.14964 65.4285 3.73865 66.0952 3.4432C66.7618 3.14774 67.5194 3.00001 68.3679 3.00001C69.2315 3.00001 69.9853 3.14774 70.6292 3.4432C71.277 3.73865 71.7808 4.14964 72.1406 4.67615C72.5005 5.20267 72.6861 5.81251 72.6974 6.5057H70.3395Z" fill="#383838"/>
<path d="M85.2045 8.97729C85.2045 10.2462 84.964 11.3258 84.4829 12.2159C84.0057 13.1061 83.3542 13.786 82.5284 14.2557C81.7064 14.7216 80.7822 14.9546 79.7557 14.9546C78.7216 14.9546 77.7936 14.7197 76.9716 14.25C76.1496 13.7803 75.5 13.1004 75.0227 12.2102C74.5454 11.3201 74.3068 10.2424 74.3068 8.97729C74.3068 7.70835 74.5454 6.6288 75.0227 5.73865C75.5 4.8485 76.1496 4.17047 76.9716 3.70456C77.7936 3.23486 78.7216 3.00001 79.7557 3.00001C80.7822 3.00001 81.7064 3.23486 82.5284 3.70456C83.3542 4.17047 84.0057 4.8485 84.4829 5.73865C84.964 6.6288 85.2045 7.70835 85.2045 8.97729ZM82.7102 8.97729C82.7102 8.15532 82.5871 7.46214 82.3409 6.89774C82.0985 6.33335 81.7557 5.90532 81.3125 5.61365C80.8693 5.32198 80.3504 5.17615 79.7557 5.17615C79.161 5.17615 78.642 5.32198 78.1989 5.61365C77.7557 5.90532 77.411 6.33335 77.1648 6.89774C76.9223 7.46214 76.8011 8.15532 76.8011 8.97729C76.8011 9.79926 76.9223 10.4924 77.1648 11.0568C77.411 11.6212 77.7557 12.0493 78.1989 12.3409C78.642 12.6326 79.161 12.7784 79.7557 12.7784C80.3504 12.7784 80.8693 12.6326 81.3125 12.3409C81.7557 12.0493 82.0985 11.6212 82.3409 11.0568C82.5871 10.4924 82.7102 9.79926 82.7102 8.97729Z" fill="#383838"/>
<path d="M88.3764 14.7955H85.74L89.7571 3.15911H92.9275L96.9389 14.7955H94.3025L91.3878 5.8182H91.2969L88.3764 14.7955ZM88.2116 10.2216H94.4389V12.1421H88.2116V10.2216Z" fill="#383838"/>
<path d="M104.386 6.5057C104.341 6.04736 104.146 5.6913 103.801 5.43751C103.456 5.18373 102.989 5.05683 102.398 5.05683C101.996 5.05683 101.657 5.11365 101.381 5.22729C101.104 5.33714 100.892 5.49054 100.744 5.68751C100.6 5.88448 100.528 6.10797 100.528 6.35797C100.521 6.5663 100.564 6.74812 100.659 6.90342C100.758 7.05873 100.892 7.1932 101.062 7.30683C101.233 7.41668 101.43 7.51327 101.653 7.5966C101.877 7.67615 102.116 7.74433 102.369 7.80115L103.415 8.05115C103.922 8.16479 104.388 8.3163 104.812 8.5057C105.237 8.69509 105.604 8.92804 105.915 9.20456C106.225 9.48107 106.466 9.80683 106.636 10.1818C106.811 10.5568 106.9 10.9868 106.903 11.4716C106.9 12.1837 106.718 12.8012 106.358 13.3239C106.002 13.8428 105.487 14.2462 104.812 14.5341C104.142 14.8182 103.333 14.9602 102.386 14.9602C101.447 14.9602 100.629 14.8163 99.9318 14.5284C99.2386 14.2405 98.697 13.8144 98.3068 13.25C97.9204 12.6818 97.7178 11.9792 97.6989 11.1421H100.08C100.106 11.5322 100.218 11.858 100.415 12.1193C100.616 12.3769 100.883 12.572 101.216 12.7046C101.553 12.8333 101.934 12.8977 102.358 12.8977C102.775 12.8977 103.136 12.8371 103.443 12.7159C103.754 12.5947 103.994 12.4262 104.165 12.2102C104.335 11.9943 104.42 11.7462 104.42 11.4659C104.42 11.2046 104.343 10.9849 104.187 10.8068C104.036 10.6288 103.812 10.4773 103.517 10.3523C103.225 10.2273 102.867 10.1137 102.443 10.0114L101.176 9.6932C100.195 9.45456 99.4204 9.08145 98.8523 8.57388C98.2841 8.0663 98.0019 7.38259 98.0057 6.52274C98.0019 5.8182 98.1894 5.20267 98.5682 4.67615C98.9507 4.14964 99.4754 3.73865 100.142 3.4432C100.809 3.14774 101.566 3.00001 102.415 3.00001C103.278 3.00001 104.032 3.14774 104.676 3.4432C105.324 3.73865 105.828 4.14964 106.187 4.67615C106.547 5.20267 106.733 5.81251 106.744 6.5057H104.386Z" fill="#383838"/>
<path d="M111.224 5.00001V1.36365H112.52C112.803 1.36365 113.037 1.41514 113.223 1.51812C113.409 1.62111 113.548 1.76197 113.64 1.94071C113.733 2.11827 113.779 2.31831 113.779 2.54085C113.779 2.76457 113.732 2.9658 113.638 3.14455C113.546 3.3221 113.406 3.46296 113.219 3.56713C113.034 3.67011 112.8 3.7216 112.518 3.7216H111.627V3.25641H112.468C112.647 3.25641 112.792 3.22563 112.903 3.16408C113.015 3.10134 113.096 3.01611 113.148 2.90839C113.201 2.80068 113.227 2.67816 113.227 2.54085C113.227 2.40354 113.201 2.28162 113.148 2.17508C113.096 2.06855 113.014 1.9851 112.902 1.92473C112.79 1.86436 112.644 1.83418 112.461 1.83418H111.772V5.00001H111.224Z" fill="#383838"/>
<path d="M114.422 5.00001V1.36365H115.718C116 1.36365 116.234 1.41218 116.419 1.50925C116.607 1.60631 116.746 1.74066 116.839 1.9123C116.931 2.08276 116.977 2.27984 116.977 2.50357C116.977 2.7261 116.93 2.92201 116.837 3.09128C116.744 3.25937 116.605 3.39017 116.418 3.48368C116.232 3.57719 115.998 3.62395 115.716 3.62395H114.734V3.15165H115.667C115.844 3.15165 115.989 3.1262 116.1 3.0753C116.212 3.0244 116.295 2.95042 116.347 2.85335C116.399 2.75629 116.425 2.63969 116.425 2.50357C116.425 2.36625 116.398 2.24729 116.345 2.14668C116.293 2.04606 116.211 1.96912 116.098 1.91585C115.987 1.8614 115.841 1.83418 115.66 1.83418H114.971V5.00001H114.422ZM116.217 3.35939L117.116 5.00001H116.491L115.61 3.35939H116.217Z" fill="#383838"/>
<path d="M120.803 3.18183C120.803 3.57009 120.732 3.9039 120.59 4.18325C120.448 4.46143 120.254 4.67568 120.006 4.82601C119.76 4.97516 119.48 5.04973 119.166 5.04973C118.851 5.04973 118.57 4.97516 118.323 4.82601C118.077 4.67568 117.883 4.46083 117.741 4.18148C117.598 3.90212 117.527 3.56891 117.527 3.18183C117.527 2.79357 117.598 2.46036 117.741 2.18219C117.883 1.90283 118.077 1.68858 118.323 1.53943C118.57 1.3891 118.851 1.31393 119.166 1.31393C119.48 1.31393 119.76 1.3891 120.006 1.53943C120.254 1.68858 120.448 1.90283 120.59 2.18219C120.732 2.46036 120.803 2.79357 120.803 3.18183ZM120.26 3.18183C120.26 2.8859 120.212 2.63673 120.116 2.43432C120.022 2.23072 119.891 2.07684 119.726 1.97267C119.561 1.86732 119.375 1.81464 119.166 1.81464C118.957 1.81464 118.77 1.86732 118.605 1.97267C118.441 2.07684 118.31 2.23072 118.215 2.43432C118.12 2.63673 118.073 2.8859 118.073 3.18183C118.073 3.47776 118.12 3.72752 118.215 3.93112C118.31 4.13354 118.441 4.28742 118.605 4.39277C118.77 4.49694 118.957 4.54902 119.166 4.54902C119.375 4.54902 119.561 4.49694 119.726 4.39277C119.891 4.28742 120.022 4.13354 120.116 3.93112C120.212 3.72752 120.26 3.47776 120.26 3.18183ZM118.946 0.999659L119.362 0.181122H119.921L119.37 0.999659H118.946Z" fill="#383838"/>
<path d="M123.052 2.95101V3.41266H121.439V2.95101H123.052Z" fill="#383838"/>
<path d="M123.802 5.00001V1.36365H125.098C125.38 1.36365 125.614 1.41218 125.799 1.50925C125.986 1.60631 126.126 1.74066 126.218 1.9123C126.311 2.08276 126.357 2.27984 126.357 2.50357C126.357 2.7261 126.31 2.92201 126.217 3.09128C126.124 3.25937 125.985 3.39017 125.798 3.48368C125.612 3.57719 125.378 3.62395 125.096 3.62395H124.114V3.15165H125.047C125.224 3.15165 125.368 3.1262 125.48 3.0753C125.592 3.0244 125.674 2.95042 125.727 2.85335C125.779 2.75629 125.805 2.63969 125.805 2.50357C125.805 2.36625 125.778 2.24729 125.725 2.14668C125.673 2.04606 125.59 1.96912 125.478 1.91585C125.367 1.8614 125.221 1.83418 125.039 1.83418H124.35V5.00001H123.802ZM125.597 3.35939L126.495 5.00001H125.87L124.99 3.35939H125.597Z" fill="#383838"/>
<path d="M127.025 5.00001V1.36365H129.304V1.83595H127.573V2.94391H129.185V3.41443H127.573V4.52771H129.326V5.00001H127.025Z" fill="#383838"/>
<path d="M130.586 1.36365V5.00001H130.037V1.36365H130.586Z" fill="#383838"/>
<path d="M131.206 1.83595V1.36365H134.02V1.83595H132.885V5.00001H132.338V1.83595H131.206Z" fill="#383838"/>
<path d="M137.644 3.18183C137.644 3.57009 137.573 3.9039 137.431 4.18325C137.289 4.46143 137.094 4.67568 136.847 4.82601C136.601 4.97516 136.321 5.04973 136.007 5.04973C135.692 5.04973 135.411 4.97516 135.164 4.82601C134.917 4.67568 134.723 4.46083 134.581 4.18148C134.439 3.90212 134.368 3.56891 134.368 3.18183C134.368 2.79357 134.439 2.46036 134.581 2.18219C134.723 1.90283 134.917 1.68858 135.164 1.53943C135.411 1.3891 135.692 1.31393 136.007 1.31393C136.321 1.31393 136.601 1.3891 136.847 1.53943C137.094 1.68858 137.289 1.90283 137.431 2.18219C137.573 2.46036 137.644 2.79357 137.644 3.18183ZM137.101 3.18183C137.101 2.8859 137.053 2.63673 136.957 2.43432C136.862 2.23072 136.732 2.07684 136.566 1.97267C136.402 1.86732 136.215 1.81464 136.007 1.81464C135.798 1.81464 135.611 1.86732 135.446 1.97267C135.281 2.07684 135.151 2.23072 135.055 2.43432C134.961 2.63673 134.913 2.8859 134.913 3.18183C134.913 3.47776 134.961 3.72752 135.055 3.93112C135.151 4.13354 135.281 4.28742 135.446 4.39277C135.611 4.49694 135.798 4.54902 136.007 4.54902C136.215 4.54902 136.402 4.49694 136.566 4.39277C136.732 4.28742 136.862 4.13354 136.957 3.93112C137.053 3.72752 137.101 3.47776 137.101 3.18183Z" fill="#383838"/>
<path d="M138.328 5.00001V1.36365H139.624C139.906 1.36365 140.14 1.41218 140.326 1.50925C140.513 1.60631 140.652 1.74066 140.745 1.9123C140.837 2.08276 140.883 2.27984 140.883 2.50357C140.883 2.7261 140.836 2.92201 140.743 3.09128C140.651 3.25937 140.511 3.39017 140.324 3.48368C140.138 3.57719 139.904 3.62395 139.623 3.62395H138.641V3.15165H139.573C139.75 3.15165 139.895 3.1262 140.006 3.0753C140.119 3.0244 140.201 2.95042 140.253 2.85335C140.305 2.75629 140.331 2.63969 140.331 2.50357C140.331 2.36625 140.304 2.24729 140.251 2.14668C140.199 2.04606 140.117 1.96912 140.004 1.91585C139.893 1.8614 139.747 1.83418 139.566 1.83418H138.877V5.00001H138.328ZM140.123 3.35939L141.022 5.00001H140.397L139.516 3.35939H140.123Z" fill="#383838"/>
<path d="M142.1 1.36365V5.00001H141.551V1.36365H142.1Z" fill="#383838"/>
<path d="M143.206 5.00001H142.623L143.932 1.36365H144.566L145.874 5.00001H145.292L144.264 2.02416H144.236L143.206 5.00001ZM143.303 3.57601H145.193V4.03766H143.303V3.57601Z" fill="#383838"/>
<path d="M111.712 11H110.535V7.36365H111.75C112.106 7.36365 112.412 7.43645 112.668 7.58205C112.923 7.72646 113.119 7.9342 113.255 8.20527C113.393 8.47516 113.461 8.7989 113.461 9.17651C113.461 9.55529 113.392 9.88081 113.254 10.1531C113.116 10.4253 112.917 10.6348 112.657 10.7816C112.397 10.9272 112.082 11 111.712 11ZM111.084 10.5206H111.682C111.959 10.5206 112.189 10.4685 112.373 10.3644C112.556 10.259 112.694 10.1069 112.785 9.90804C112.876 9.70799 112.922 9.46415 112.922 9.17651C112.922 8.89123 112.876 8.64916 112.785 8.4503C112.695 8.25143 112.561 8.10051 112.382 7.99753C112.203 7.89455 111.981 7.84305 111.716 7.84305H111.084V10.5206Z" fill="#383838"/>
<path d="M114.144 11V7.36365H116.423V7.83595H114.692V8.94391H116.305V9.41443H114.692V10.5277H116.445V11H114.144Z" fill="#383838"/>
<path d="M120.941 8.51244C120.906 8.40472 120.86 8.30825 120.802 8.22303C120.745 8.13661 120.677 8.06322 120.598 8.00285C120.519 7.9413 120.428 7.89455 120.326 7.86259C120.226 7.83062 120.115 7.81464 119.994 7.81464C119.789 7.81464 119.605 7.86732 119.44 7.97267C119.276 8.07802 119.145 8.23249 119.05 8.43609C118.955 8.63851 118.907 8.8865 118.907 9.18006C118.907 9.4748 118.955 9.72397 119.051 9.92757C119.147 10.1312 119.279 10.2856 119.445 10.391C119.612 10.4963 119.802 10.549 120.015 10.549C120.213 10.549 120.385 10.5088 120.532 10.4283C120.68 10.3478 120.794 10.2342 120.875 10.0874C120.957 9.93941 120.997 9.7654 120.997 9.56536L121.139 9.59199H120.099V9.13922H121.528V9.55293C121.528 9.85832 121.463 10.1235 121.333 10.3484C121.204 10.5721 121.025 10.7449 120.797 10.8668C120.569 10.9888 120.309 11.0497 120.015 11.0497C119.686 11.0497 119.398 10.974 119.149 10.8225C118.902 10.6709 118.709 10.4561 118.57 10.1779C118.432 9.89857 118.362 9.56713 118.362 9.18361C118.362 8.8936 118.403 8.63318 118.483 8.40236C118.564 8.17153 118.677 7.97563 118.822 7.81464C118.969 7.65248 119.141 7.52878 119.339 7.44355C119.538 7.35714 119.755 7.31393 119.991 7.31393C120.187 7.31393 120.37 7.34294 120.539 7.40094C120.71 7.45894 120.861 7.54121 120.994 7.64774C121.128 7.75428 121.238 7.88093 121.326 8.02771C121.413 8.17331 121.473 8.33489 121.503 8.51244H120.941Z" fill="#383838"/>
<path d="M122.225 11V7.36365H124.505V7.83595H122.773V8.94391H124.386V9.41443H122.773V10.5277H124.526V11H122.225Z" fill="#383838"/>
<path d="M127.221 8.31891C127.202 8.15082 127.124 8.02061 126.986 7.92828C126.849 7.83477 126.676 7.78801 126.468 7.78801C126.319 7.78801 126.19 7.81169 126.081 7.85903C125.972 7.9052 125.887 7.96912 125.827 8.0508C125.768 8.13129 125.738 8.22303 125.738 8.32601C125.738 8.41242 125.758 8.48699 125.798 8.54973C125.84 8.61247 125.894 8.66514 125.96 8.70776C126.028 8.74918 126.1 8.78411 126.177 8.81251C126.254 8.83974 126.328 8.86223 126.399 8.87999L126.754 8.97231C126.87 9.00072 126.989 9.03919 127.111 9.08773C127.233 9.13626 127.346 9.20018 127.45 9.27949C127.554 9.3588 127.638 9.45705 127.702 9.57423C127.767 9.69142 127.8 9.83169 127.8 9.99504C127.8 10.201 127.746 10.3839 127.64 10.5437C127.534 10.7035 127.381 10.8296 127.18 10.9219C126.98 11.0142 126.738 11.0604 126.454 11.0604C126.181 11.0604 125.946 11.0172 125.747 10.9308C125.548 10.8444 125.392 10.7218 125.28 10.5632C125.168 10.4034 125.105 10.214 125.094 9.99504H125.644C125.655 10.1264 125.697 10.2359 125.772 10.3235C125.848 10.4099 125.944 10.4744 126.061 10.5171C126.18 10.5585 126.309 10.5792 126.45 10.5792C126.605 10.5792 126.743 10.5549 126.864 10.5064C126.986 10.4567 127.082 10.388 127.151 10.3004C127.221 10.2117 127.256 10.1081 127.256 9.98972C127.256 9.882 127.225 9.79381 127.164 9.72516C127.104 9.6565 127.021 9.59968 126.917 9.5547C126.814 9.50972 126.697 9.47007 126.567 9.43574L126.138 9.31855C125.846 9.23924 125.616 9.12265 125.445 8.96876C125.276 8.81488 125.191 8.61128 125.191 8.35797C125.191 8.14845 125.248 7.96557 125.362 7.80932C125.475 7.65307 125.629 7.53174 125.823 7.44533C126.017 7.35773 126.236 7.31393 126.48 7.31393C126.727 7.31393 126.944 7.35714 127.132 7.44355C127.321 7.52996 127.47 7.64892 127.579 7.80044C127.688 7.95077 127.745 8.12359 127.75 8.31891H127.221Z" fill="#383838"/>
<path d="M128.276 7.83595V7.36365H131.09V7.83595H129.956V11H129.409V7.83595H128.276Z" fill="#383838"/>
<path d="M131.589 11H131.007L132.316 7.36365H132.95L134.258 11H133.676L132.648 8.02416H132.619L131.589 11ZM131.687 9.57601H133.576V10.0377H131.687V9.57601ZM132.099 7.00321L131.74 6.99078C131.74 6.79547 131.794 6.63922 131.9 6.52203C132.007 6.40484 132.138 6.34566 132.293 6.34447C132.366 6.34447 132.43 6.3569 132.484 6.38176C132.539 6.40544 132.59 6.43325 132.637 6.46521C132.684 6.49717 132.732 6.52558 132.781 6.55044C132.829 6.57411 132.883 6.58595 132.942 6.58595C133.01 6.58477 133.065 6.55873 133.108 6.50783C133.151 6.45574 133.173 6.39123 133.173 6.31429L133.525 6.33737C133.524 6.53505 133.47 6.69071 133.363 6.80435C133.258 6.9168 133.128 6.97303 132.973 6.97303C132.889 6.97303 132.819 6.96119 132.763 6.93751C132.708 6.91266 132.658 6.88484 132.616 6.85406C132.573 6.8221 132.529 6.79428 132.484 6.77061C132.439 6.74575 132.386 6.73332 132.323 6.73332C132.258 6.73332 132.204 6.75877 132.161 6.80967C132.12 6.86057 132.099 6.92509 132.099 7.00321Z" fill="#383838"/>
<path d="M137.771 9.18183C137.771 9.57009 137.7 9.9039 137.558 10.1833C137.416 10.4614 137.221 10.6757 136.974 10.826C136.728 10.9752 136.448 11.0497 136.134 11.0497C135.819 11.0497 135.538 10.9752 135.291 10.826C135.044 10.6757 134.85 10.4608 134.708 10.1815C134.566 9.90212 134.495 9.56891 134.495 9.18183C134.495 8.79357 134.566 8.46036 134.708 8.18219C134.85 7.90283 135.044 7.68858 135.291 7.53943C135.538 7.3891 135.819 7.31393 136.134 7.31393C136.448 7.31393 136.728 7.3891 136.974 7.53943C137.221 7.68858 137.416 7.90283 137.558 8.18219C137.7 8.46036 137.771 8.79357 137.771 9.18183ZM137.228 9.18183C137.228 8.8859 137.18 8.63673 137.084 8.43432C136.989 8.23072 136.859 8.07684 136.693 7.97267C136.529 7.86732 136.342 7.81464 136.134 7.81464C135.925 7.81464 135.738 7.86732 135.573 7.97267C135.408 8.07684 135.278 8.23072 135.182 8.43432C135.088 8.63673 135.04 8.8859 135.04 9.18183C135.04 9.47776 135.088 9.72752 135.182 9.93112C135.278 10.1335 135.408 10.2874 135.573 10.3928C135.738 10.4969 135.925 10.549 136.134 10.549C136.342 10.549 136.529 10.4969 136.693 10.3928C136.859 10.2874 136.989 10.1335 137.084 9.93112C137.18 9.72752 137.228 9.47776 137.228 9.18183Z" fill="#383838"/>
<path d="M140.956 11H139.778V7.36365H140.993C141.349 7.36365 141.655 7.43645 141.911 7.58205C142.167 7.72646 142.362 7.9342 142.499 8.20527C142.636 8.47516 142.705 8.7989 142.705 9.17651C142.705 9.55529 142.635 9.88081 142.497 10.1531C142.36 10.4253 142.161 10.6348 141.9 10.7816C141.64 10.9272 141.325 11 140.956 11ZM140.327 10.5206H140.925C141.202 10.5206 141.433 10.4685 141.616 10.3644C141.8 10.259 141.937 10.1069 142.028 9.90804C142.119 9.70799 142.165 9.46415 142.165 9.17651C142.165 8.89123 142.119 8.64916 142.028 8.4503C141.938 8.25143 141.804 8.10051 141.625 7.99753C141.446 7.89455 141.224 7.84305 140.959 7.84305H140.327V10.5206Z" fill="#383838"/>
<path d="M143.387 11V7.36365H145.667V7.83595H143.935V8.94391H145.548V9.41443H143.935V10.5277H145.688V11H143.387Z" fill="#383838"/>
<path d="M123.401 17V13.3637H124.698C124.981 13.3637 125.215 13.4151 125.401 13.5181C125.587 13.6211 125.726 13.762 125.818 13.9407C125.91 14.1183 125.956 14.3183 125.956 14.5409C125.956 14.7646 125.91 14.9658 125.816 15.1445C125.724 15.3221 125.584 15.463 125.397 15.5671C125.211 15.6701 124.978 15.7216 124.696 15.7216H123.805V15.2564H124.646C124.825 15.2564 124.97 15.2256 125.081 15.1641C125.192 15.1013 125.274 15.0161 125.326 14.9084C125.378 14.8007 125.404 14.6782 125.404 14.5409C125.404 14.4035 125.378 14.2816 125.326 14.1751C125.274 14.0686 125.192 13.9851 125.079 13.9247C124.968 13.8644 124.821 13.8342 124.639 13.8342H123.95V17H123.401Z" fill="#383838"/>
<path d="M126.6 17V13.3637H128.88V13.836H127.148V14.9439H128.761V15.4144H127.148V16.5277H128.901V17H126.6Z" fill="#383838"/>
<path d="M131.596 14.3189C131.577 14.1508 131.499 14.0206 131.361 13.9283C131.224 13.8348 131.051 13.788 130.843 13.788C130.694 13.788 130.565 13.8117 130.456 13.859C130.347 13.9052 130.262 13.9691 130.202 14.0508C130.143 14.1313 130.113 14.223 130.113 14.326C130.113 14.4124 130.133 14.487 130.173 14.5497C130.215 14.6125 130.269 14.6651 130.335 14.7078C130.403 14.7492 130.475 14.7841 130.552 14.8125C130.629 14.8397 130.703 14.8622 130.774 14.88L131.129 14.9723C131.245 15.0007 131.364 15.0392 131.486 15.0877C131.608 15.1363 131.721 15.2002 131.825 15.2795C131.929 15.3588 132.013 15.457 132.077 15.5742C132.142 15.6914 132.175 15.8317 132.175 15.995C132.175 16.201 132.121 16.3839 132.015 16.5437C131.909 16.7035 131.756 16.8296 131.555 16.9219C131.355 17.0142 131.113 17.0604 130.829 17.0604C130.556 17.0604 130.321 17.0172 130.122 16.9308C129.923 16.8444 129.767 16.7218 129.655 16.5632C129.543 16.4034 129.48 16.214 129.469 15.995H130.019C130.03 16.1264 130.072 16.2359 130.147 16.3235C130.223 16.4099 130.319 16.4744 130.436 16.5171C130.555 16.5585 130.684 16.5792 130.825 16.5792C130.98 16.5792 131.118 16.5549 131.239 16.5064C131.361 16.4567 131.457 16.388 131.526 16.3004C131.596 16.2117 131.631 16.1081 131.631 15.9897C131.631 15.882 131.6 15.7938 131.539 15.7252C131.479 15.6565 131.396 15.5997 131.292 15.5547C131.189 15.5097 131.072 15.4701 130.942 15.4357L130.513 15.3186C130.221 15.2392 129.991 15.1226 129.82 14.9688C129.651 14.8149 129.566 14.6113 129.566 14.358C129.566 14.1485 129.623 13.9656 129.737 13.8093C129.85 13.6531 130.004 13.5317 130.198 13.4453C130.392 13.3577 130.611 13.3139 130.855 13.3139C131.101 13.3139 131.319 13.3571 131.507 13.4436C131.696 13.53 131.845 13.6489 131.954 13.8004C132.063 13.9508 132.12 14.1236 132.125 14.3189H131.596Z" fill="#383838"/>
<path d="M134.813 14.3189C134.795 14.1508 134.716 14.0206 134.579 13.9283C134.442 13.8348 134.269 13.788 134.061 13.788C133.911 13.788 133.782 13.8117 133.674 13.859C133.565 13.9052 133.48 13.9691 133.42 14.0508C133.36 14.1313 133.331 14.223 133.331 14.326C133.331 14.4124 133.351 14.487 133.391 14.5497C133.433 14.6125 133.487 14.6651 133.553 14.7078C133.62 14.7492 133.692 14.7841 133.769 14.8125C133.846 14.8397 133.92 14.8622 133.991 14.88L134.346 14.9723C134.463 15.0007 134.581 15.0392 134.703 15.0877C134.825 15.1363 134.938 15.2002 135.043 15.2795C135.147 15.3588 135.231 15.457 135.295 15.5742C135.36 15.6914 135.392 15.8317 135.392 15.995C135.392 16.201 135.339 16.3839 135.233 16.5437C135.127 16.7035 134.974 16.8296 134.773 16.9219C134.573 17.0142 134.331 17.0604 134.046 17.0604C133.774 17.0604 133.539 17.0172 133.34 16.9308C133.141 16.8444 132.985 16.7218 132.873 16.5632C132.76 16.4034 132.698 16.214 132.686 15.995H133.237C133.247 16.1264 133.29 16.2359 133.365 16.3235C133.44 16.4099 133.537 16.4744 133.654 16.5171C133.772 16.5585 133.902 16.5792 134.043 16.5792C134.198 16.5792 134.336 16.5549 134.457 16.5064C134.579 16.4567 134.674 16.388 134.744 16.3004C134.814 16.2117 134.849 16.1081 134.849 15.9897C134.849 15.882 134.818 15.7938 134.757 15.7252C134.696 15.6565 134.614 15.5997 134.51 15.5547C134.407 15.5097 134.29 15.4701 134.16 15.4357L133.73 15.3186C133.439 15.2392 133.208 15.1226 133.038 14.9688C132.869 14.8149 132.784 14.6113 132.784 14.358C132.784 14.1485 132.841 13.9656 132.954 13.8093C133.068 13.6531 133.222 13.5317 133.416 13.4453C133.61 13.3577 133.829 13.3139 134.073 13.3139C134.319 13.3139 134.536 13.3571 134.725 13.4436C134.914 13.53 135.063 13.6489 135.172 13.8004C135.281 13.9508 135.338 14.1236 135.343 14.3189H134.813Z" fill="#383838"/>
<path d="M139.207 15.1818C139.207 15.5701 139.136 15.9039 138.994 16.1833C138.852 16.4614 138.657 16.6757 138.409 16.826C138.163 16.9752 137.883 17.0497 137.57 17.0497C137.255 17.0497 136.974 16.9752 136.726 16.826C136.48 16.6757 136.286 16.4608 136.144 16.1815C136.002 15.9021 135.931 15.5689 135.931 15.1818C135.931 14.7936 136.002 14.4604 136.144 14.1822C136.286 13.9028 136.48 13.6886 136.726 13.5394C136.974 13.3891 137.255 13.3139 137.57 13.3139C137.883 13.3139 138.163 13.3891 138.409 13.5394C138.657 13.6886 138.852 13.9028 138.994 14.1822C139.136 14.4604 139.207 14.7936 139.207 15.1818ZM138.663 15.1818C138.663 14.8859 138.615 14.6367 138.52 14.4343C138.425 14.2307 138.295 14.0768 138.129 13.9727C137.964 13.8673 137.778 13.8146 137.57 13.8146C137.36 13.8146 137.173 13.8673 137.009 13.9727C136.844 14.0768 136.714 14.2307 136.618 14.4343C136.523 14.6367 136.476 14.8859 136.476 15.1818C136.476 15.4778 136.523 15.7275 136.618 15.9311C136.714 16.1335 136.844 16.2874 137.009 16.3928C137.173 16.4969 137.36 16.549 137.57 16.549C137.778 16.549 137.964 16.4969 138.129 16.3928C138.295 16.2874 138.425 16.1335 138.52 15.9311C138.615 15.7275 138.663 15.4778 138.663 15.1818Z" fill="#383838"/>
<path d="M140.017 17H139.435L140.743 13.3637H141.377L142.686 17H142.104L141.075 14.0242H141.047L140.017 17ZM140.115 15.576H142.004V16.0377H140.115V15.576Z" fill="#383838"/>
<path d="M145.165 14.3189C145.146 14.1508 145.068 14.0206 144.931 13.9283C144.793 13.8348 144.621 13.788 144.412 13.788C144.263 13.788 144.134 13.8117 144.025 13.859C143.916 13.9052 143.832 13.9691 143.771 14.0508C143.712 14.1313 143.682 14.223 143.682 14.326C143.682 14.4124 143.703 14.487 143.743 14.5497C143.784 14.6125 143.838 14.6651 143.904 14.7078C143.972 14.7492 144.044 14.7841 144.121 14.8125C144.198 14.8397 144.272 14.8622 144.343 14.88L144.698 14.9723C144.814 15.0007 144.933 15.0392 145.055 15.0877C145.177 15.1363 145.29 15.2002 145.394 15.2795C145.498 15.3588 145.582 15.457 145.646 15.5742C145.711 15.6914 145.744 15.8317 145.744 15.995C145.744 16.201 145.691 16.3839 145.584 16.5437C145.479 16.7035 145.325 16.8296 145.124 16.9219C144.924 17.0142 144.682 17.0604 144.398 17.0604C144.126 17.0604 143.89 17.0172 143.691 16.9308C143.492 16.8444 143.337 16.7218 143.224 16.5632C143.112 16.4034 143.05 16.214 143.038 15.995H143.588C143.599 16.1264 143.642 16.2359 143.716 16.3235C143.792 16.4099 143.888 16.4744 144.006 16.5171C144.124 16.5585 144.254 16.5792 144.394 16.5792C144.55 16.5792 144.687 16.5549 144.808 16.5064C144.93 16.4567 145.026 16.388 145.096 16.3004C145.166 16.2117 145.201 16.1081 145.201 15.9897C145.201 15.882 145.17 15.7938 145.108 15.7252C145.048 15.6565 144.966 15.5997 144.861 15.5547C144.758 15.5097 144.642 15.4701 144.512 15.4357L144.082 15.3186C143.791 15.2392 143.56 15.1226 143.389 14.9688C143.22 14.8149 143.136 14.6113 143.136 14.358C143.136 14.1485 143.192 13.9656 143.306 13.8093C143.42 13.6531 143.574 13.5317 143.768 13.4453C143.962 13.3577 144.181 13.3139 144.425 13.3139C144.671 13.3139 144.888 13.3571 145.076 13.4436C145.266 13.53 145.415 13.6489 145.524 13.8004C145.633 13.9508 145.689 14.1236 145.694 14.3189H145.165Z" fill="#383838"/>
</svg>
