<svg width="69" height="17" viewBox="0 0 69 17" fill="none" xmlns="http://www.w3.org/2000/svg">
<path d="M7.19885 2.00001H9.65908V9.55683C9.65908 10.4053 9.45643 11.1477 9.05113 11.7841C8.64961 12.4205 8.08711 12.9167 7.36363 13.2727C6.64014 13.625 5.79734 13.8012 4.83522 13.8012C3.86931 13.8012 3.02461 13.625 2.30113 13.2727C1.57764 12.9167 1.01514 12.4205 0.613625 11.7841C0.21211 11.1477 0.0113525 10.4053 0.0113525 9.55683V2.00001H2.47158V9.34661C2.47158 9.78979 2.56817 10.1837 2.76135 10.5284C2.95832 10.8731 3.23484 11.144 3.5909 11.3409C3.94696 11.5379 4.36173 11.6364 4.83522 11.6364C5.31249 11.6364 5.72726 11.5379 6.07953 11.3409C6.4356 11.144 6.71022 10.8731 6.9034 10.5284C7.10037 10.1837 7.19885 9.78979 7.19885 9.34661V2.00001Z" fill="#383838"/>
<path d="M11.6832 13.6364V2.00001H19.3878V4.02842H14.1435V6.80115H18.8764V8.82956H14.1435V13.6364H11.6832Z" fill="#383838"/>
<path d="M24.6079 2.00001H27.0398V10.1137C27.0398 10.8637 26.8712 11.5152 26.5341 12.0682C26.2007 12.6212 25.7367 13.0474 25.142 13.3466C24.5473 13.6458 23.856 13.7955 23.0682 13.7955C22.3674 13.7955 21.7311 13.6724 21.1591 13.4262C20.5909 13.1762 20.1401 12.7974 19.8068 12.2898C19.4735 11.7784 19.3087 11.1364 19.3125 10.3637H21.7614C21.7689 10.6705 21.8314 10.9337 21.9489 11.1534C22.0701 11.3693 22.2348 11.536 22.4432 11.6534C22.6553 11.7671 22.9053 11.8239 23.1932 11.8239C23.4962 11.8239 23.7519 11.7595 23.9602 11.6307C24.1723 11.4981 24.3333 11.3049 24.4432 11.0512C24.553 10.7974 24.6079 10.4849 24.6079 10.1137V2.00001Z" fill="#383838"/>
<path d="M34.7379 0.36365H35.2884V2.75534C35.2884 3.00984 35.2286 3.23534 35.109 3.43183C34.9895 3.62714 34.8214 3.78103 34.6048 3.89348C34.3881 4.00475 34.1342 4.06038 33.843 4.06038C33.553 4.06038 33.2997 4.00475 33.0831 3.89348C32.8665 3.78103 32.6984 3.62714 32.5788 3.43183C32.4593 3.23534 32.3995 3.00984 32.3995 2.75534V0.36365H32.9482V2.71095C32.9482 2.87549 32.9843 3.02168 33.0565 3.14952C33.1299 3.27736 33.2334 3.37797 33.3672 3.45136C33.5009 3.52357 33.6596 3.55967 33.843 3.55967C34.0277 3.55967 34.1869 3.52357 34.3207 3.45136C34.4556 3.37797 34.5586 3.27736 34.6296 3.14952C34.7018 3.02168 34.7379 2.87549 34.7379 2.71095V0.36365Z" fill="#383838"/>
<path d="M39.021 0.36365V4.00001H38.5168L36.6684 1.33311H36.6347V4.00001H36.086V0.36365H36.5938L38.444 3.0341H38.4777V0.36365H39.021Z" fill="#383838"/>
<path d="M40.37 0.36365V4.00001H39.8214V0.36365H40.37Z" fill="#383838"/>
<path d="M41.4869 0.36365L42.4989 3.3253H42.5398L43.5518 0.36365H44.1449L42.8363 4.00001H42.2024L40.8938 0.36365H41.4869Z" fill="#383838"/>
<path d="M44.67 4.00001V0.36365H46.9498V0.835952H45.2187V1.94391H46.8309V2.41443H45.2187V3.52771H46.9711V4.00001H44.67Z" fill="#383838"/>
<path d="M47.6827 4.00001V0.36365H48.9789C49.2606 0.36365 49.4944 0.412182 49.6802 0.509247C49.8672 0.606311 50.0069 0.740663 50.0993 0.912301C50.1916 1.08276 50.2377 1.27984 50.2377 1.50357C50.2377 1.7261 50.191 1.92201 50.0975 2.09128C50.0051 2.25937 49.8655 2.39017 49.6784 2.48368C49.4926 2.57719 49.2588 2.62395 48.9771 2.62395H47.9952V2.15165H48.9274C49.1049 2.15165 49.2493 2.1262 49.3606 2.0753C49.4731 2.0244 49.5553 1.95042 49.6074 1.85335C49.6595 1.75629 49.6855 1.63969 49.6855 1.50357C49.6855 1.36625 49.6589 1.24729 49.6056 1.14668C49.5536 1.04606 49.4713 0.969119 49.3588 0.915852C49.2476 0.861401 49.1014 0.834176 48.9203 0.834176H48.2314V4.00001H47.6827ZM49.4778 2.35939L50.3762 4.00001H49.7512L48.8706 2.35939H49.4778Z" fill="#383838"/>
<path d="M52.8887 1.31891C52.8697 1.15082 52.7916 1.02061 52.6543 0.928281C52.517 0.834768 52.3442 0.788011 52.1358 0.788011C51.9867 0.788011 51.8577 0.811685 51.7488 0.859034C51.6399 0.905198 51.5552 0.969119 51.4949 1.0508C51.4357 1.13129 51.4061 1.22303 51.4061 1.32601C51.4061 1.41242 51.4262 1.48699 51.4664 1.54973C51.5079 1.61247 51.5617 1.66514 51.628 1.70776C51.6955 1.74919 51.7677 1.7841 51.8446 1.81251C51.9216 1.83974 51.9956 1.86223 52.0666 1.87999L52.4217 1.97232C52.5377 2.00072 52.6567 2.03919 52.7786 2.08773C52.9005 2.13626 53.0136 2.20018 53.1177 2.27949C53.2219 2.3588 53.3059 2.45705 53.3699 2.57423C53.435 2.69142 53.4675 2.83169 53.4675 2.99504C53.4675 3.20101 53.4142 3.38389 53.3077 3.54369C53.2024 3.70349 53.0491 3.82956 52.8478 3.92189C52.6478 4.01422 52.4057 4.06038 52.1216 4.06038C51.8494 4.06038 51.6138 4.01718 51.415 3.93077C51.2161 3.84436 51.0604 3.72184 50.948 3.56322C50.8355 3.40342 50.7734 3.21403 50.7615 2.99504H51.312C51.3226 3.12643 51.3652 3.23593 51.4398 3.32352C51.5156 3.40993 51.612 3.47445 51.7292 3.51706C51.8476 3.55849 51.9772 3.5792 52.1181 3.5792C52.2731 3.5792 52.411 3.55494 52.5318 3.50641C52.6537 3.45669 52.7496 3.38803 52.8194 3.30044C52.8893 3.21166 52.9242 3.10809 52.9242 2.98972C52.9242 2.882 52.8934 2.79381 52.8319 2.72516C52.7715 2.6565 52.6892 2.59968 52.585 2.5547C52.4821 2.50972 52.3655 2.47007 52.2353 2.43574L51.8056 2.31855C51.5144 2.23924 51.2836 2.12265 51.1131 1.96876C50.9438 1.81488 50.8592 1.61128 50.8592 1.35797C50.8592 1.14845 50.916 0.965568 51.0297 0.809318C51.1433 0.653068 51.2972 0.531737 51.4913 0.445327C51.6854 0.357732 51.9044 0.313934 52.1483 0.313934C52.3945 0.313934 52.6117 0.35714 52.7999 0.443551C52.9893 0.529962 53.1384 0.648925 53.2473 0.80044C53.3562 0.950771 53.4131 1.12359 53.4178 1.31891H52.8887Z" fill="#383838"/>
<path d="M54.6718 0.36365V4.00001H54.1231V0.36365H54.6718Z" fill="#383838"/>
<path d="M56.648 4.00001H55.4708V0.36365H56.6853C57.0416 0.36365 57.3476 0.436449 57.6032 0.582045C57.8589 0.726458 58.0548 0.934199 58.191 1.20527C58.3283 1.47516 58.3969 1.7989 58.3969 2.17651C58.3969 2.55529 58.3277 2.88081 58.1892 3.15307C58.0519 3.42532 57.853 3.63484 57.5926 3.78162C57.3322 3.92722 57.0173 4.00001 56.648 4.00001ZM56.0194 3.52061H56.6178C56.8948 3.52061 57.125 3.46853 57.3085 3.36436C57.492 3.25901 57.6293 3.1069 57.7204 2.90804C57.8116 2.70799 57.8572 2.46415 57.8572 2.17651C57.8572 1.89123 57.8116 1.64916 57.7204 1.4503C57.6305 1.25143 57.4961 1.10051 57.3174 0.997528C57.1386 0.894545 56.9167 0.843054 56.6515 0.843054H56.0194V3.52061Z" fill="#383838"/>
<path d="M59.2057 4.00001H58.6233L59.9319 0.36365H60.5658L61.8744 4.00001H61.292L60.2639 1.02416H60.2355L59.2057 4.00001ZM59.3034 2.57601H61.1926V3.03766H59.3034V2.57601Z" fill="#383838"/>
<path d="M63.5767 4.00001H62.3995V0.36365H63.614C63.9703 0.36365 64.2763 0.436449 64.532 0.582045C64.7876 0.726458 64.9835 0.934199 65.1197 1.20527C65.257 1.47516 65.3256 1.7989 65.3256 2.17651C65.3256 2.55529 65.2564 2.88081 65.1179 3.15307C64.9806 3.42532 64.7817 3.63484 64.5213 3.78162C64.2609 3.92722 63.946 4.00001 63.5767 4.00001ZM62.9482 3.52061H63.5465C63.8235 3.52061 64.0537 3.46853 64.2372 3.36436C64.4207 3.25901 64.558 3.1069 64.6491 2.90804C64.7403 2.70799 64.7859 2.46415 64.7859 2.17651C64.7859 1.89123 64.7403 1.64916 64.6491 1.4503C64.5592 1.25143 64.4248 1.10051 64.2461 0.997528C64.0674 0.894545 63.8454 0.843054 63.5803 0.843054H62.9482V3.52061Z" fill="#383838"/>
<path d="M66.0079 4.00001V0.36365H68.2877V0.835952H66.5565V1.94391H68.1688V2.41443H66.5565V3.52771H68.309V4.00001H66.0079Z" fill="#383838"/>
<path d="M32.3995 10V6.36365H34.6545V6.83595H32.9482V7.94391H34.4929V8.41443H32.9482V10H32.3995Z" fill="#383838"/>
<path d="M35.3292 10V6.36365H37.609V6.83595H35.8778V7.94391H37.4901V8.41443H35.8778V9.52771H37.6303V10H35.3292Z" fill="#383838"/>
<path d="M39.5191 10H38.3419V6.36365H39.5564C39.9127 6.36365 40.2187 6.43645 40.4743 6.58205C40.73 6.72646 40.9259 6.9342 41.0621 7.20527C41.1994 7.47516 41.268 7.7989 41.268 8.17651C41.268 8.55529 41.1988 8.88081 41.0603 9.15307C40.923 9.42532 40.7241 9.63484 40.4637 9.78162C40.2033 9.92722 39.8884 10 39.5191 10ZM38.8905 9.52061H39.4889C39.7659 9.52061 39.9961 9.46853 40.1796 9.36436C40.3631 9.25901 40.5004 9.1069 40.5915 8.90804C40.6827 8.70799 40.7282 8.46415 40.7282 8.17651C40.7282 7.89123 40.6827 7.64916 40.5915 7.4503C40.5016 7.25143 40.3672 7.10051 40.1885 6.99753C40.0097 6.89455 39.7878 6.84305 39.5226 6.84305H38.8905V9.52061Z" fill="#383838"/>
<path d="M41.9503 10V6.36365H44.2301V6.83595H42.4989V7.94391H44.1111V8.41443H42.4989V9.52771H44.2514V10H41.9503Z" fill="#383838"/>
<path d="M44.963 10V6.36365H46.2591C46.5409 6.36365 46.7747 6.41218 46.9605 6.50925C47.1475 6.60631 47.2872 6.74066 47.3795 6.9123C47.4719 7.08276 47.518 7.27984 47.518 7.50357C47.518 7.7261 47.4713 7.92201 47.3778 8.09128C47.2854 8.25937 47.1457 8.39017 46.9587 8.48368C46.7729 8.57719 46.5391 8.62395 46.2574 8.62395H45.2755V8.15165H46.2077C46.3852 8.15165 46.5296 8.1262 46.6409 8.0753C46.7533 8.0244 46.8356 7.95042 46.8877 7.85335C46.9398 7.75629 46.9658 7.63969 46.9658 7.50357C46.9658 7.36625 46.9392 7.24729 46.8859 7.14668C46.8338 7.04606 46.7516 6.96912 46.6391 6.91585C46.5278 6.8614 46.3817 6.83418 46.2006 6.83418H45.5116V10H44.963ZM46.7581 8.35939L47.6565 10H47.0315L46.1508 8.35939H46.7581Z" fill="#383838"/>
<path d="M48.4928 10H47.9104L49.219 6.36365H49.8529L51.1615 10H50.5791L49.551 7.02416H49.5226L48.4928 10ZM48.5905 8.57601H50.4797V9.03766H48.5905V8.57601Z" fill="#383838"/>
<path d="M51.6866 10V6.36365H52.2353V9.52771H53.883V10H51.6866Z" fill="#383838"/>
<path d="M57.0093 10H55.8321V6.36365H57.0466C57.4029 6.36365 57.7089 6.43645 57.9646 6.58205C58.2203 6.72646 58.4162 6.9342 58.5523 7.20527C58.6896 7.47516 58.7583 7.7989 58.7583 8.17651C58.7583 8.55529 58.689 8.88081 58.5505 9.15307C58.4132 9.42532 58.2143 9.63484 57.9539 9.78162C57.6935 9.92722 57.3786 10 57.0093 10ZM56.3808 9.52061H56.9791C57.2561 9.52061 57.4864 9.46853 57.6698 9.36436C57.8533 9.25901 57.9906 9.1069 58.0818 8.90804C58.1729 8.70799 58.2185 8.46415 58.2185 8.17651C58.2185 7.89123 58.1729 7.64916 58.0818 7.4503C57.9918 7.25143 57.8575 7.10051 57.6787 6.99753C57.5 6.89455 57.278 6.84305 57.0129 6.84305H56.3808V9.52061Z" fill="#383838"/>
<path d="M59.4405 10V6.36365H61.7203V6.83595H59.9892V7.94391H61.6014V8.41443H59.9892V9.52771H61.7417V10H59.4405Z" fill="#383838"/>
<path d="M33.8129 12.3637H34.3597V14.9418C34.3597 15.175 34.3136 15.3744 34.2212 15.5401C34.1301 15.7059 34.0017 15.8325 33.8359 15.9201C33.6702 16.0065 33.4761 16.0497 33.2536 16.0497C33.0488 16.0497 32.8647 16.0124 32.7014 15.9379C32.5392 15.8633 32.4107 15.755 32.3161 15.6129C32.2225 15.4697 32.1758 15.2957 32.1758 15.0909H32.7209C32.7209 15.1915 32.744 15.2785 32.7901 15.3519C32.8375 15.4253 32.902 15.4827 32.9837 15.5242C33.0665 15.5644 33.1612 15.5845 33.2678 15.5845C33.3838 15.5845 33.482 15.5603 33.5625 15.5117C33.6442 15.462 33.7063 15.3892 33.7489 15.2933C33.7915 15.1975 33.8129 15.0803 33.8129 14.9418V12.3637Z" fill="#383838"/>
<path d="M35.4655 16H34.8831L36.1917 12.3637H36.8256L38.1341 16H37.5518L36.5237 13.0242H36.4953L35.4655 16ZM35.5631 14.576H37.4523V15.0377H35.5631V14.576Z" fill="#383838"/>
<path d="M38.0502 12.836V12.3637H40.8645V12.836H39.7299V16H39.1831V12.836H38.0502Z" fill="#383838"/>
<path d="M41.3639 16H40.7815L42.0901 12.3637H42.724L44.0326 16H43.4502L42.4221 13.0242H42.3937L41.3639 16ZM41.4616 14.576H43.3508V15.0377H41.4616V14.576Z" fill="#383838"/>
<path d="M45.1064 12.3637V16H44.5577V12.3637H45.1064ZM44.6145 11.9997L45.03 11.1811H45.5893L45.0389 11.9997H44.6145Z" fill="#383838"/>
</svg>
